<svg xmlns="http://www.w3.org/2000/svg" width="650" height="260" viewBox="0 0 650 260">
<defs><linearGradient id="amber" x1="0" y1="0" x2="0" y2="1"><stop offset="0" stop-color="#ffcc55"/><stop offset="0.2" stop-color="#ffcc00"/><stop offset="1" stop-color="#ff8800"/></linearGradient></defs>
<rect width="650" height="260" fill="#1b1f23"/>
<g transform="translate(56.51,18.62) scale(0.58933)">
  <rect x="136" y="72" width="158" height="178" rx="17" fill="#3a4149" stroke="#1b1f23" stroke-width="6"/>
  <rect x="154" y="94" width="122" height="40" rx="8" fill="#272d33"/>
  <rect x="166" y="111" width="47" height="6" rx="3" fill="#7d848b"/>
  <circle cx="260" cy="114" r="6" fill="#ffcc00"/>
  <rect x="154" y="143" width="122" height="40" rx="8" fill="#272d33"/>
  <rect x="166" y="160" width="47" height="6" rx="3" fill="#7d848b"/>
  <circle cx="260" cy="163" r="6" fill="#ffcc00"/>
  <rect x="154" y="192" width="122" height="40" rx="8" fill="#272d33"/>
  <rect x="166" y="209" width="47" height="6" rx="3" fill="#7d848b"/>
  <circle cx="260" cy="212" r="6" fill="#ffcc00"/>
  <rect x="28" y="90" width="132" height="214" rx="25" fill="#343b41" stroke="#1b1f23" stroke-width="9"/>
  <rect x="39" y="111" width="110" height="172" rx="12" fill="url(#amber)"/>
  <rect x="76" y="99" width="36" height="6" rx="3" fill="#7d848b"/>
</g>
<text x="281" y="147" font-family="DejaVu Sans, Liberation Sans, sans-serif" font-weight="bold" font-size="49" fill="#ECEDEE">Party Sync</text>
</svg>
